<?xml version="1.0" encoding="iso-8859-1"?>
<!-- Generator: Adobe Illustrator 19.0.0, SVG Export Plug-In . SVG Version: 6.00 Build 0)  -->
<svg version="1.1" id="Layer_1" xmlns="http://www.w3.org/2000/svg" xmlns:xlink="http://www.w3.org/1999/xlink" x="0px" y="0px"
	 viewBox="0 0 512 512" style="enable-background:new 0 0 512 512;" xml:space="preserve">
<g>
	<g>
		<path d="M365.515,0h-219.03c-27.094,0-49.139,22.043-49.139,49.138v413.725c0,27.094,22.044,49.138,49.139,49.138h219.03
			c27.094,0,49.139-22.042,49.139-49.138V49.138C414.654,22.043,392.609,0,365.515,0z M117.745,83.633h276.51v315.155h-276.51
			V83.633z M365.515,491.602h-219.03c-15.848,0-28.74-12.893-28.74-28.739v-43.675h276.51v43.675h0.001
			C394.255,478.709,381.363,491.602,365.515,491.602z M394.255,63.235H117.745V49.138c0-15.846,12.893-28.739,28.74-28.739h219.03
			c15.848,0,28.74,12.893,28.74,28.739V63.235z"/>
	</g>
</g>
<g>
	<g>
		<path d="M263.301,32.637h-12.169c-5.632,0-10.199,4.567-10.199,10.199c0,5.632,4.567,10.199,10.199,10.199h12.169
			c5.632,0,10.199-4.567,10.199-10.199C273.5,37.205,268.934,32.637,263.301,32.637z"/>
	</g>
</g>
<g>
	<g>
		<path d="M256,425.307c-16.309,0-29.578,13.269-29.578,29.578c0,16.309,13.269,29.578,29.578,29.578s29.578-13.269,29.578-29.578
			C285.578,438.576,272.309,425.307,256,425.307z M256,464.064c-5.062,0-9.179-4.117-9.179-9.179s4.117-9.179,9.179-9.179
			c5.062,0,9.179,4.117,9.179,9.179S261.062,464.064,256,464.064z"/>
	</g>
</g>
<g>
	<g>
		<path d="M140.749,234.582c-5.632,0-10.199,4.567-10.199,10.199v131.57c0,5.632,4.567,10.199,10.199,10.199
			c5.632,0,10.199-4.567,10.199-10.199v-131.57C150.948,239.149,146.381,234.582,140.749,234.582z"/>
	</g>
</g>
<g>
	<g>
		<path d="M140.749,193.912c-5.632,0-10.199,4.567-10.199,10.199v7.012c0,5.632,4.567,10.199,10.199,10.199
			c5.632,0,10.199-4.567,10.199-10.199v-7.012C150.948,198.48,146.381,193.912,140.749,193.912z"/>
	</g>
</g>
<g>
</g>
<g>
</g>
<g>
</g>
<g>
</g>
<g>
</g>
<g>
</g>
<g>
</g>
<g>
</g>
<g>
</g>
<g>
</g>
<g>
</g>
<g>
</g>
<g>
</g>
<g>
</g>
<g>
</g>
</svg>
