<?xml version="1.0" encoding="utf-8"?>
<!-- Generator: Adobe Illustrator 19.1.0, SVG Export Plug-In . SVG Version: 6.00 Build 0)  -->
<svg version="1.1" id="Layer_1" xmlns="http://www.w3.org/2000/svg" xmlns:xlink="http://www.w3.org/1999/xlink" x="0px" y="0px"
	 viewBox="0 0 64 64" enable-background="new 0 0 64 64" xml:space="preserve">
<g id="Bubble-lines">
	<path d="M51,17h-38c-0.5528002,0-1,0.4472008-1,1c0,0.5527,0.4471998,1,1,1h38c0.5527,0,1-0.4473,1-1
		C52,17.4472008,51.5527,17,51,17z"/>
	<path d="M51,29h-38c-0.5528002,0-1,0.4472008-1,1c0,0.5527,0.4471998,1,1,1h38c0.5527,0,1-0.4473,1-1
		C52,29.4472008,51.5527,29,51,29z"/>
	<path d="M57.3349075,1H6.6650004C2.9902008,1,0.0000008,4.0254002,0.0000008,7.7431002v31.7626991
		c0,3.7178001,2.9902,6.7422028,6.6649995,6.7422028h9.1562996l-3.3975,15.5380974
		c-0.0908003,0.4131012,0.0888996,0.8389015,0.4473,1.0625C13.0332003,62.9501991,13.2168007,63,13.4004002,63
		c0.2207003,0,0.4404001-0.0732994,0.6211004-0.2158012l20.8642006-16.5361977h22.4492073
		C61.0097008,46.2480011,64,43.2235985,64,39.5057983V7.7431002C64,4.0254002,61.0097008,1,57.3349075,1z M62,39.5057983
		c0,2.615303-2.0928001,4.7422028-4.6650925,4.7422028H34.5371017c-0.2256012,0-0.4444008,0.0761986-0.6211014,0.2157974
		L14.9765005,59.4756012l3.0635004-14.0137024c0.0653992-0.2958984-0.0078011-0.6054993-0.1973-0.8407974
		c-0.1904011-0.2364006-0.4765015-0.3731003-0.7793007-0.3731003H6.6650004c-2.5723,0-4.665-2.1268997-4.665-4.7422028V7.7431002
		C2.0000007,5.1279001,4.0927005,3,6.6650004,3h50.6699066C59.9071999,3,62,5.1279001,62,7.7431002V39.5057983z"/>
</g>
<g>
</g>
<g>
</g>
<g>
</g>
<g>
</g>
<g>
</g>
<g>
</g>
<g>
</g>
<g>
</g>
<g>
</g>
<g>
</g>
<g>
</g>
<g>
</g>
<g>
</g>
<g>
</g>
<g>
</g>
</svg>
